<svg xmlns="http://www.w3.org/2000/svg" width="200" height="200" viewBox="0 0 200 200">
  <g id="Group_10425" data-name="Group 10425" transform="translate(-3446 -1761)">
    <rect id="Rectangle_2601" data-name="Rectangle 2601" width="200" height="200" transform="translate(3446 1761)" fill="#fff" opacity="0"/>
    <path id="hamster-facing-right" d="M132.8,14.722s-17.421-34.131-25.056,1.543C96.921,21.771,79.572,13.331,58.853,14.8,51.715,15.31.017,14.149,0,59.993c-.017,29.295,19.548,44.343,32.08,44.882,2.893.118,14.13,0,14.855-.039,3.848-.177,8.017-.359,8.066-2.38.1-4.247-16.318-5.986-17.605-6.9s-1.279-6.546,6.235-4.529c13.017,3.669,35.328,1.288,40.46-.178s8.5,6.108,11.431,10.145a9.462,9.462,0,0,0,7.516,3.847h19.441c3.847,0,2.566-4.315-5.869-6.147s-3.747-6.1,0-9.8c3.451-3.408,12.2-12.484,18.7-13.571,43.089-7.333,42.5-33.922,41.95-37.953C188.9,26.394,141.962,15.28,132.8,14.722Z" transform="translate(3456.45 1822.693)" fill="#fefefe"/>
  </g>
</svg>
